<svg width="1600" height="900" viewBox="0 0 1600 900" fill="none" xmlns="http://www.w3.org/2000/svg">
  <defs>
    <linearGradient id="bg" x1="0" y1="0" x2="0" y2="1">
      <stop offset="0" stop-color="#F7FBFF"/>
      <stop offset="1" stop-color="#EAF2FA"/>
    </linearGradient>
    <linearGradient id="accent" x1="0" y1="0" x2="1" y2="1">
      <stop offset="0" stop-color="#2B6CB0"/>
      <stop offset="1" stop-color="#FF8A3D"/>
    </linearGradient>
    <linearGradient id="panel" x1="0" y1="0" x2="0" y2="1">
      <stop offset="0" stop-color="#FFFFFF"/>
      <stop offset="1" stop-color="#F2F6FB"/>
    </linearGradient>
  </defs>

  <rect width="1600" height="900" rx="56" fill="url(#bg)"/>

  <circle cx="260" cy="220" r="150" fill="#D8E7F6"/>
  <circle cx="1320" cy="200" r="120" fill="#FFE2D0"/>

  <path d="M290 720H1320" stroke="#C4D6EA" stroke-width="18" stroke-linecap="round"/>
  <path d="M340 780H1260" stroke="#C4D6EA" stroke-width="12" stroke-linecap="round"/>

  <g>
    <rect x="520" y="220" width="560" height="360" rx="18" fill="url(#panel)" stroke="#BFD3EA" stroke-width="6"/>
    <rect x="600" y="280" width="80" height="120" rx="8" fill="#DCE9F7"/>
    <rect x="720" y="280" width="80" height="120" rx="8" fill="#DCE9F7"/>
    <rect x="840" y="280" width="80" height="120" rx="8" fill="#DCE9F7"/>
    <rect x="960" y="280" width="80" height="120" rx="8" fill="#DCE9F7"/>

    <rect x="600" y="430" width="80" height="120" rx="8" fill="#DCE9F7"/>
    <rect x="720" y="430" width="80" height="120" rx="8" fill="#DCE9F7"/>
    <rect x="840" y="430" width="80" height="120" rx="8" fill="#DCE9F7"/>
    <rect x="960" y="430" width="80" height="120" rx="8" fill="#DCE9F7"/>

    <rect x="760" y="520" width="80" height="120" rx="10" fill="#B4CAE5"/>
    <path d="M650 220L800 140L950 220" fill="#FFFFFF" stroke="#BFD3EA" stroke-width="6"/>
    <rect x="770" y="160" width="60" height="60" rx="8" fill="#E6F0FA"/>
    <path d="M772 186H828" stroke="#9BB6D6" stroke-width="6" stroke-linecap="round"/>
    <path d="M800 160V220" stroke="#9BB6D6" stroke-width="6" stroke-linecap="round"/>
  </g>

  <g>
    <rect x="260" y="640" width="200" height="90" rx="16" fill="#FFFFFF" stroke="#C7D7EA" stroke-width="6"/>
    <rect x="290" y="610" width="200" height="90" rx="16" fill="#2B6CB0"/>
    <rect x="320" y="580" width="200" height="90" rx="16" fill="#FF8A3D"/>
  </g>

  <g>
    <circle cx="430" cy="380" r="38" fill="#1F2B3A"/>
    <rect x="400" y="420" width="90" height="140" rx="26" fill="#2B6CB0"/>
    <rect x="380" y="520" width="130" height="24" rx="12" fill="#1F2B3A"/>
    <rect x="360" y="544" width="160" height="30" rx="14" fill="#1F2B3A"/>
    <rect x="470" y="460" width="90" height="16" rx="8" fill="#C7D7EA"/>
  </g>

  <g>
    <circle cx="1160" cy="420" r="34" fill="#1F2B3A"/>
    <rect x="1120" y="455" width="120" height="150" rx="28" fill="#FFFFFF" stroke="#BFD3EA" stroke-width="6"/>
    <rect x="1110" y="565" width="150" height="28" rx="14" fill="#1F2B3A"/>
    <rect x="1140" y="500" width="120" height="70" rx="12" fill="#DCE9F7"/>
  </g>

  <path d="M960 640C1030 620 1090 620 1160 640" stroke="url(#accent)" stroke-width="10" stroke-linecap="round"/>
  <path d="M420 620C520 600 620 600 720 620" stroke="url(#accent)" stroke-width="10" stroke-linecap="round"/>
</svg>
